# xmcd
#
# Track frame offsets: 
#        150
#        22168
#        50585
#        74920
#        100298
#        128703
#        161980
#
# Disc length: 2661 seconds
#
# Revision: 2
# Processed by: cddbd v1.5.2PL0 Copyright (c) Steve Scherf et al.
# Submitted via: ExactAudioCopyFreeDBPlugin 1.0
#
DISCID=6b0a6307
DTITLE=Ray Lynch - Nothing Above My Shoulders but the Evening
DYEAR=1993
DGENRE=New Age
TTITLE0=Over Easy
TTITLE1=Her Knees Deep in Your Mind
TTITLE2=Passion Song
TTITLE3=Ivory
TTITLE4=Mesquite
TTITLE5=Only an Enjoyment
TTITLE6=The Vanished Gardens of Córdoba
EXTD=YEAR: 1993
EXTT0=
EXTT1=
EXTT2=
EXTT3=
EXTT4=
EXTT5=
EXTT6=
PLAYORDER=
